<svg width="30" height="84" viewBox="0 0 30 84" fill="none" xmlns="http://www.w3.org/2000/svg">
<path id="Arrow 1" d="M17 2C17 0.895431 16.1046 1.19209e-07 15 1.19209e-07C13.8954 1.19209e-07 13 0.895431 13 2L17 2ZM13.5858 83.4142C14.3668 84.1953 15.6332 84.1953 16.4142 83.4142L29.1421 70.6863C29.9232 69.9052 29.9232 68.6389 29.1421 67.8579C28.3611 67.0768 27.0948 67.0768 26.3137 67.8579L15 79.1716L3.68629 67.8579C2.90524 67.0768 1.63891 67.0768 0.857865 67.8579C0.0768165 68.6389 0.0768165 69.9052 0.857865 70.6863L13.5858 83.4142ZM13 3C13 4.10457 13.8954 5 15 5C16.1046 5 17 4.10457 17 3H13ZM17 11C17 9.89543 16.1046 9 15 9C13.8954 9 13 9.89543 13 11H17ZM13 13C13 14.1046 13.8954 15 15 15C16.1046 15 17 14.1046 17 13H13ZM17 21C17 19.8954 16.1046 19 15 19C13.8954 19 13 19.8954 13 21H17ZM13 23C13 24.1046 13.8954 25 15 25C16.1046 25 17 24.1046 17 23H13ZM17 31C17 29.8954 16.1046 29 15 29C13.8954 29 13 29.8954 13 31H17ZM13 33C13 34.1046 13.8954 35 15 35C16.1046 35 17 34.1046 17 33H13ZM17 41C17 39.8954 16.1046 39 15 39C13.8954 39 13 39.8954 13 41H17ZM13 43C13 44.1046 13.8954 45 15 45C16.1046 45 17 44.1046 17 43H13ZM17 51C17 49.8954 16.1046 49 15 49C13.8954 49 13 49.8954 13 51H17ZM13 53C13 54.1046 13.8954 55 15 55C16.1046 55 17 54.1046 17 53H13ZM17 61C17 59.8954 16.1046 59 15 59C13.8954 59 13 59.8954 13 61H17ZM13 63C13 64.1046 13.8954 65 15 65C16.1046 65 17 64.1046 17 63H13ZM17 71C17 69.8954 16.1046 69 15 69C13.8954 69 13 69.8954 13 71H17ZM13 73C13 74.1046 13.8954 75 15 75C16.1046 75 17 74.1046 17 73H13ZM17 81C17 79.8954 16.1046 79 15 79C13.8954 79 13 79.8954 13 81H17ZM13 2V3H17V2L13 2ZM13 11V13H17V11H13ZM13 21L13 23H17V21H13ZM13 31V33H17V31H13ZM13 41V43H17L17 41H13ZM13 51V53H17V51H13ZM13 61V63H17V61H13ZM13 71V73H17L17 71H13ZM13 81V82H17V81H13ZM17 2C17 0.895431 16.1046 1.19209e-07 15 1.19209e-07C13.8954 1.19209e-07 13 0.895431 13 2L17 2ZM13.5858 83.4142C14.3668 84.1953 15.6332 84.1953 16.4142 83.4142L29.1421 70.6863C29.9232 69.9052 29.9232 68.6389 29.1421 67.8579C28.3611 67.0768 27.0948 67.0768 26.3137 67.8579L15 79.1716L3.68629 67.8579C2.90524 67.0768 1.63891 67.0768 0.857865 67.8579C0.0768165 68.6389 0.0768165 69.9052 0.857865 70.6863L13.5858 83.4142ZM13 3C13 4.10457 13.8954 5 15 5C16.1046 5 17 4.10457 17 3H13ZM17 11C17 9.89543 16.1046 9 15 9C13.8954 9 13 9.89543 13 11H17ZM13 13C13 14.1046 13.8954 15 15 15C16.1046 15 17 14.1046 17 13H13ZM17 21C17 19.8954 16.1046 19 15 19C13.8954 19 13 19.8954 13 21H17ZM13 23C13 24.1046 13.8954 25 15 25C16.1046 25 17 24.1046 17 23H13ZM17 31C17 29.8954 16.1046 29 15 29C13.8954 29 13 29.8954 13 31H17ZM13 33C13 34.1046 13.8954 35 15 35C16.1046 35 17 34.1046 17 33H13ZM17 41C17 39.8954 16.1046 39 15 39C13.8954 39 13 39.8954 13 41H17ZM13 43C13 44.1046 13.8954 45 15 45C16.1046 45 17 44.1046 17 43H13ZM17 51C17 49.8954 16.1046 49 15 49C13.8954 49 13 49.8954 13 51H17ZM13 53C13 54.1046 13.8954 55 15 55C16.1046 55 17 54.1046 17 53H13ZM17 61C17 59.8954 16.1046 59 15 59C13.8954 59 13 59.8954 13 61H17ZM13 63C13 64.1046 13.8954 65 15 65C16.1046 65 17 64.1046 17 63H13ZM17 71C17 69.8954 16.1046 69 15 69C13.8954 69 13 69.8954 13 71H17ZM13 73C13 74.1046 13.8954 75 15 75C16.1046 75 17 74.1046 17 73H13ZM17 81C17 79.8954 16.1046 79 15 79C13.8954 79 13 79.8954 13 81H17ZM13 2V3H17V2L13 2ZM13 11V13H17V11H13ZM13 21L13 23H17V21H13ZM13 31V33H17V31H13ZM13 41V43H17L17 41H13ZM13 51V53H17V51H13ZM13 61V63H17V61H13ZM13 71V73H17L17 71H13ZM13 81V82H17V81H13Z" fill="#D98A02"/>
</svg>
